<svg width="56" height="56" viewBox="0 0 56 56" fill="none" xmlns="http://www.w3.org/2000/svg">
<path d="M16.3334 42V36.1666M16.3334 36.1666V32.6666C16.3334 31.5667 16.3334 31.0167 16.6922 30.675C17.051 30.3333 17.6284 30.3333 18.7834 30.3333H20.4167C22.1081 30.3333 23.4792 31.6391 23.4792 33.25C23.4792 34.8608 22.1081 36.1666 20.4167 36.1666H16.3334ZM49 30.3333H45.9375C44.0126 30.3333 43.0502 30.3333 42.4522 30.9028C41.8542 31.4723 41.8542 32.389 41.8542 34.2222V36.1666M41.8542 42V36.1666M41.8542 36.1666H46.9584M36.75 36.1666C36.75 39.3883 34.0078 42 30.625 42C29.8618 42 29.4801 42 29.1959 41.8437C28.5153 41.4695 28.5834 40.7119 28.5834 40.0555V32.2778C28.5834 31.6214 28.5153 30.8638 29.1959 30.4896C29.4801 30.3333 29.8618 30.3333 30.625 30.3333C34.0078 30.3333 36.75 32.945 36.75 36.1666Z" stroke="#242424" stroke-width="2.33333" stroke-linecap="round" stroke-linejoin="round"/>
<path d="M35 51.3333H25.0303C17.4208 51.3333 13.616 51.3333 10.9738 49.4717C10.2167 48.9383 9.54464 48.3058 8.97792 47.5932C6.99996 45.1064 6.99996 41.5255 6.99996 34.3636V28.4242C6.99996 21.5102 6.99996 18.0531 8.09414 15.2921C9.85319 10.8533 13.5733 7.35204 18.2895 5.69647C21.2231 4.66665 24.8962 4.66664 32.2424 4.66664C36.4402 4.66664 38.5391 4.66664 40.2155 5.25511C42.9104 6.20116 45.0362 8.20187 46.0414 10.7383C46.6666 12.3161 46.6666 14.2915 46.6666 18.2424V23.3333" stroke="#242424" stroke-width="2.33333" stroke-linecap="round" stroke-linejoin="round"/>
<path d="M7.00004 28C7.00004 23.7045 10.4823 20.2222 14.7778 20.2222C16.3313 20.2222 18.1628 20.4944 19.6732 20.0897C21.0152 19.7301 22.0635 18.6819 22.4231 17.3398C22.8278 15.8294 22.5556 13.9979 22.5556 12.4444C22.5556 8.14889 26.0378 4.66667 30.3334 4.66667" stroke="#242424" stroke-width="2.33333" stroke-linecap="round" stroke-linejoin="round"/>
</svg>
