<svg width="200" height="200" viewBox="0 0 200 200" fill="none" xmlns="http://www.w3.org/2000/svg">
<path d="M58.3334 150V129.167M58.3334 129.167V116.667C58.3334 112.738 58.3334 110.774 59.6148 109.554C60.8962 108.333 62.9586 108.333 67.0834 108.333H72.9167C78.9573 108.333 83.8542 112.997 83.8542 118.75C83.8542 124.503 78.9573 129.167 72.9167 129.167H58.3334ZM175 108.333H164.063C157.188 108.333 153.751 108.333 151.615 110.367C149.479 112.401 149.479 115.675 149.479 122.222V129.167M149.479 150V129.167M149.479 129.167H167.708M131.25 129.167C131.25 140.673 121.456 150 109.375 150C106.649 150 105.286 150 104.271 149.442C101.84 148.105 102.083 145.4 102.083 143.056V115.278C102.083 112.934 101.84 110.228 104.271 108.892C105.286 108.333 106.649 108.333 109.375 108.333C121.456 108.333 131.25 117.661 131.25 129.167Z" stroke="#242424" stroke-width="8" stroke-linecap="round" stroke-linejoin="round"/>
<path d="M125 183.333H89.3939C62.2172 183.333 48.6288 183.333 39.1922 176.685C36.4885 174.78 34.0881 172.521 32.0641 169.976C25 161.094 25 148.305 25 122.727V101.515C25 76.822 25 64.4755 28.9078 54.6146C35.1901 38.7618 48.4761 26.2574 65.3196 20.3446C75.7969 16.6667 88.9151 16.6667 115.151 16.6667C130.144 16.6667 137.64 16.6667 143.627 18.7683C153.252 22.1471 160.844 29.2925 164.434 38.3512C166.667 43.986 166.667 51.0412 166.667 65.1515V83.3333" stroke="#242424" stroke-width="8" stroke-linecap="round" stroke-linejoin="round"/>
<path d="M25 100C25 84.6588 37.4366 72.2222 52.7778 72.2222C58.326 72.2222 64.867 73.1944 70.2614 71.749C75.0544 70.4647 78.7981 66.721 80.0823 61.928C81.5278 56.5336 80.5556 49.9926 80.5556 44.4444C80.5556 29.1032 92.9921 16.6667 108.333 16.6667" stroke="#242424" stroke-width="8" stroke-linecap="round" stroke-linejoin="round"/>
</svg>
