<svg width="24" height="24" viewBox="0 0 24 24" fill="none" xmlns="http://www.w3.org/2000/svg">
<path d="M15 21H9" stroke="#242424" stroke-linecap="round" stroke-linejoin="round"/>
<path d="M12.5 3C12.5 2.72386 12.2761 2.5 12 2.5C11.7239 2.5 11.5 2.72386 11.5 3H12.5ZM11.5 21C11.5 21.2761 11.7239 21.5 12 21.5C12.2761 21.5 12.5 21.2761 12.5 21H11.5ZM11.5 3V21H12.5V3H11.5Z" fill="#242424"/>
<path d="M19 6C19 5.37191 19 5.05787 18.9194 4.78267C18.7518 4.21026 18.3066 3.71716 17.7541 3.49226C17.4886 3.38413 17.1885 3.35347 16.5884 3.29216C15.1695 3.14718 13.3874 3 12 3C10.6126 3 8.83047 3.14718 7.41161 3.29216C6.8115 3.35347 6.51144 3.38413 6.24586 3.49226C5.69344 3.71716 5.24816 4.21026 5.08057 4.78267C5 5.05787 5 5.37191 5 6" stroke="#242424" stroke-linecap="round"/>
</svg>
