<svg width="20" height="20" viewBox="0 0 20 20" fill="none" xmlns="http://www.w3.org/2000/svg">
<path fill-rule="evenodd" clip-rule="evenodd" d="M7.39747 5.31547C7.39747 6.87102 6.11507 8.13184 4.53174 8.13184C2.94934 8.13184 1.66602 6.87102 1.66602 5.31547C1.66602 3.76082 2.94934 2.5 4.53174 2.5C6.11507 2.5 7.39747 3.76082 7.39747 5.31547ZM17.0772 4.08193C17.7698 4.08193 18.3328 4.63502 18.3328 5.31546C18.3328 5.99681 17.7698 6.5499 17.0772 6.5499H11.5976C10.9041 6.5499 10.3411 5.99681 10.3411 5.31546C10.3411 4.63502 10.9041 4.08193 11.5976 4.08193H17.0772ZM2.92249 13.2983H8.40209C9.0956 13.2983 9.65856 13.8514 9.65856 14.5327C9.65856 15.2132 9.0956 15.7672 8.40209 15.7672H2.92249C2.22898 15.7672 1.66602 15.2132 1.66602 14.5327C1.66602 13.8514 2.22898 13.2983 2.92249 13.2983ZM15.4668 17.3148C17.0501 17.3148 18.3325 16.054 18.3325 14.4994C18.3325 12.9438 17.0501 11.683 15.4668 11.683C13.8844 11.683 12.6011 12.9438 12.6011 14.4994C12.6011 16.054 13.8844 17.3148 15.4668 17.3148Z" fill="#262262"/>
</svg>
