<svg width="24" height="24" viewBox="0 0 24 24" fill="none" xmlns="http://www.w3.org/2000/svg">
<path d="M10.4348 5.34164C11.4201 4.84897 12.5799 4.84897 13.5652 5.34164L19.0931 8.10557C19.8302 8.4741 19.8302 9.5259 19.0931 9.89443L13.5652 12.6584C12.5799 13.151 11.4201 13.151 10.4348 12.6584L4.90689 9.89443C4.16984 9.5259 4.16984 8.4741 4.90689 8.10557L10.4348 5.34164Z" stroke="#242424"/>
<path fill-rule="evenodd" clip-rule="evenodd" d="M6.00008 13L4.6833 13.6584C3.57773 14.2111 3.57773 15.7889 4.68331 16.3416L10.2112 19.1056C11.3373 19.6686 12.6628 19.6686 13.7889 19.1056L19.3167 16.3416C20.4223 15.7889 20.4223 14.2111 19.3167 13.6584L18.0001 13L16.882 13.559L18.8695 14.5528C19.2381 14.737 19.238 15.2629 18.8695 15.4472L13.3417 18.2111C12.4971 18.6334 11.503 18.6334 10.6584 18.2111L5.13052 15.4472C4.76199 15.2629 4.762 14.737 5.13052 14.5528L7.11811 13.559L6.00008 13Z" fill="#242424"/>
<path fill-rule="evenodd" clip-rule="evenodd" d="M5.99995 9.99997L4.68318 10.6584C3.57761 11.2111 3.57761 12.7889 4.68318 13.3416L10.211 16.1056C11.3372 16.6686 12.6626 16.6686 13.7888 16.1056L19.3166 13.3416C20.4222 12.7889 20.4222 11.2111 19.3166 10.6584L17.9999 10L16.8819 10.559L18.8694 11.5528C19.2379 11.737 19.2379 12.2629 18.8694 12.4472L13.3415 15.2111C12.497 15.6334 11.5028 15.6334 10.6583 15.2111L5.1304 12.4472C4.76187 12.2629 4.76188 11.737 5.1304 11.5528L7.11799 10.559L5.99995 9.99997Z" fill="#242424"/>
</svg>
