<svg width="22" height="22" viewBox="0 0 24 24" fill="none" xmlns="http://www.w3.org/2000/svg">
<path d="M17 7.66666L16.5868 14.3501C16.4813 16.0576 16.4285 16.9114 16.0005 17.5252C15.7889 17.8287 15.5164 18.0848 15.2005 18.2773C14.5614 18.6667 13.706 18.6667 11.9952 18.6667C10.2821 18.6667 9.42554 18.6667 8.78604 18.2766C8.46987 18.0838 8.19733 17.8272 7.98579 17.5232C7.55792 16.9084 7.5063 16.0534 7.40307 14.3434L7 7.66666" stroke="#DFDFDF" stroke-linecap="round"/>
<path d="M6 7.66666H18M14.7038 7.66666L14.2487 6.72781C13.9464 6.10417 13.7952 5.79234 13.5345 5.59787C13.4766 5.55473 13.4154 5.51636 13.3513 5.48313C13.0626 5.33333 12.7161 5.33333 12.023 5.33333C11.3126 5.33333 10.9573 5.33333 10.6638 5.48941C10.5987 5.524 10.5367 5.56393 10.4782 5.60877C10.2144 5.81113 10.0671 6.13436 9.7724 6.78083L9.36862 7.66666" stroke="#DFDFDF" stroke-linecap="round"/>
<path d="M10.3334 15L10.3334 11" stroke="#fff" stroke-linecap="round"/>
<path d="M13.6666 15L13.6666 11" stroke="#fff" stroke-linecap="round"/>
</svg>
