<svg width="56" height="56" viewBox="0 0 56 56" fill="none" xmlns="http://www.w3.org/2000/svg">
<path d="M16.3333 41.9999V36.1666M16.3333 36.1666V32.6666C16.3333 31.5666 16.3333 31.0167 16.692 30.675C17.0508 30.3333 17.6283 30.3333 18.7833 30.3333H20.4166C22.108 30.3333 23.4791 31.6391 23.4791 33.2499C23.4791 34.8607 22.108 36.1666 20.4166 36.1666H16.3333ZM48.9999 30.3333H45.9374C44.0125 30.3333 43.0501 30.3333 42.4521 30.9028C41.8541 31.4723 41.8541 32.3889 41.8541 34.2221V36.1666M41.8541 41.9999V36.1666M41.8541 36.1666H46.9583M36.7499 36.1666C36.7499 39.3882 34.0077 41.9999 30.6249 41.9999C29.8616 41.9999 29.48 41.9999 29.1958 41.8436C28.5152 41.4694 28.5833 40.7118 28.5833 40.0555V32.2777C28.5833 31.6213 28.5152 30.8638 29.1958 30.4896C29.48 30.3333 29.8616 30.3333 30.6249 30.3333C34.0077 30.3333 36.7499 32.9449 36.7499 36.1666Z" stroke="#FFCC00" stroke-width="2.33333" stroke-linecap="round" stroke-linejoin="round"/>
<path d="M35.0001 51.3333H25.0304C17.4209 51.3333 13.6162 51.3333 10.9739 49.4716C10.2169 48.9383 9.54477 48.3057 8.97805 47.5932C7.00008 45.1063 7.00008 41.5254 7.00008 34.3636V28.4242C7.00008 21.5101 7.00008 18.0531 8.09426 15.292C9.85331 10.8532 13.5734 7.35198 18.2896 5.69641C21.2232 4.66658 24.8963 4.66658 32.2425 4.66658C36.4403 4.66658 38.5392 4.66658 40.2156 5.25505C42.9106 6.20109 45.0363 8.20181 46.0415 10.7382C46.6667 12.316 46.6667 14.2914 46.6667 18.2423V23.3333" stroke="#FFCC00" stroke-width="2.33333" stroke-linecap="round" stroke-linejoin="round"/>
<path d="M6.99992 28C6.99992 23.7045 10.4821 20.2222 14.7777 20.2222C16.3312 20.2222 18.1627 20.4944 19.6731 20.0897C21.0151 19.7301 22.0634 18.6819 22.423 17.3398C22.8277 15.8294 22.5555 13.9979 22.5555 12.4444C22.5555 8.14889 26.0377 4.66667 30.3333 4.66667" stroke="#FFCC00" stroke-width="2.33333" stroke-linecap="round" stroke-linejoin="round"/>
</svg>
